PathFileType	4	(X/Y/Z)	Patient4_TMGait_0pt8_01_left_28.trc.trc
DataRate	CameraRate	NumFrames	NumMarkers	Units	OrigDataRate	OrigDataStartFrame	OrigNumFrames
93.333333333334	93.333333333334	6	33	mm	93.333333333334	36	       141
Frame#	Time	Sacral			L.Shoulder			Chest			R.Shoulder			Neck			R.ASIS			L.ASIS			R.Thigh.Superior			R.Thigh.Lateral			R.Thigh.Inferior			R.Patella			L.Thigh.Superior			L.Thigh.Lateral			L.Thigh.Inferior			L.Patella			L.Shank.Superior			L.Shank.Lateral			L.Shank.Inferior			R.Shank.Superior			R.Shank.Lateral			R.Shank.Inferior			R.Heel			R.Midfoot.Superior			R.Midfoot.Lateral			R.Toe			L.Heel			L.Midfoot.Lateral			L.Midfoot.Superior			L.Toe			L.Elbow			L.Wrist			R.Elbow			R.Wrist			
		X1	Y1	Z1	X2	Y2	Z2	X3	Y3	Z3	X4	Y4	Z4	X5	Y5	Z5	X6	Y6	Z6	X7	Y7	Z7	X8	Y8	Z8	X9	Y9	Z9	X10	Y10	Z10	X11	Y11	Z11	X12	Y12	Z12	X13	Y13	Z13	X14	Y14	Z14	X15	Y15	Z15	X16	Y16	Z16	X17	Y17	Z17	X18	Y18	Z18	X19	Y19	Z19	X20	Y20	Z20	X21	Y21	Z21	X22	Y22	Z22	X23	Y23	Z23	X24	Y24	Z24	X25	Y25	Z25	X26	Y26	Z26	X27	Y27	Z27	X28	Y28	Z28	X29	Y29	Z29	X30	Y30	Z30	X31	Y31	Z31	X32	Y32	Z32	X33	Y33	Z33	

36	31.135000000000	880.981116166879	990.475912537452	492.255400259858	1053.101580198713	1413.227701287942	308.860632031545	1161.084854050099	1344.305229233067	466.903943883846	1085.420312240569	1424.088658946098	642.098213736999	1059.325640083736	1477.449489285034	462.480754108598	1103.308118290538	922.786272578011	610.106915279093	1094.827326599763	943.710013081576	336.050617552158	1115.024684872944	708.984646996575	584.825078656997	1016.367970837848	609.625624552625	643.545936465889	1087.760047627838	543.111730827472	569.569979284712	1066.319769693062	439.008530052262	583.114591980648	1175.029758091664	762.735139092094	367.256904771997	1118.395179044482	634.681683800336	293.719811798920	1218.496289661562	573.076471036521	357.127297539910	1234.534721683566	500.704861281865	361.283044584279	1209.471379085483	423.427621768567	350.324827883783	1125.112528434647	308.468586047375	291.512963288820	1179.613895477055	196.264347600962	358.252523491415	991.698501440358	372.530067432783	587.288003822476	874.857938732556	322.288574679782	647.354079025598	864.687279056528	216.334011406384	591.353847929890	666.258008023014	122.119546156588	561.784171946877	842.849247963802	109.756035696219	605.465921062317	737.425932481115	84.510569401277	638.106709713106	931.510036716698	35.539065566194	638.391355892858	1054.230715454651	38.564097803212	392.161356486641	1128.218899432228	36.422594055228	311.180016049555	1210.011514870351	98.419212693587	339.723839149680	1338.687003378246	49.879808419451	310.142442757182	948.435370458015	1077.039459640358	201.764108734832	918.953889256372	820.214604115063	188.237057463717	1201.771235883487	1108.601472035140	766.364611730923	1371.644137399906	1255.205768712697	663.167832890140	
37	31.145714285714	880.847378822284	991.900319146635	490.567677450156	1052.862724248808	1414.707503688977	307.254338751450	1160.845255130804	1345.899156331903	465.337578213027	1085.078086714346	1425.695236039439	640.522718539699	1058.860082705384	1478.906583912978	460.800559988348	1103.278118816206	923.908890386544	607.978050919514	1094.683095325544	945.734333036275	334.076722001702	1119.623383663481	711.077456089604	582.988905530415	1023.900689647052	609.657350327622	642.025293315752	1097.575258231873	544.345558350221	568.567868590779	1077.462248229246	438.586925187617	583.475698468209	1173.830961084535	762.444276807832	363.841201604024	1113.979349212542	634.462169604912	292.624956058368	1213.988089083107	572.003411127402	355.220215068729	1229.188174712993	499.902214273901	360.241946720968	1203.481123652522	422.790121741118	349.493216037324	1118.128864650297	308.368429775313	291.394864045337	1171.868641700512	195.927359410433	358.076630749524	1000.446456948619	373.214744258006	587.200087056074	881.208625118568	327.647653689114	646.334165668754	867.988578670745	221.550502251746	591.226249077968	666.825855209703	137.325849918038	560.017074347518	841.396639872700	113.112785313570	605.592815610221	734.392247538903	94.991246991772	636.854757827625	923.287408389060	34.560169581355	638.524420489388	1045.665230087618	38.501105441242	392.084414348414	1119.636214569355	36.424226627874	311.098786483549	1201.372884737022	98.444363982486	339.679840157015	1330.055823226840	50.122937650960	309.994611908488	953.728685105923	1076.237175422484	200.329234994916	931.672182281402	818.457178780908	187.840489697856	1192.175564898899	1106.181373855207	765.388693348712	1365.748691965733	1247.312832014031	660.493081280540	
38	31.156428571429	880.491525002833	993.386640853950	488.924204703075	1052.725402432856	1416.248467900491	305.754802562286	1160.599028801048	1347.479879555672	463.926949422281	1084.624874422515	1427.220631453384	639.089517634936	1058.376754161044	1480.365373337896	459.251586818059	1103.078342791600	925.022470253093	605.945221323214	1094.391937636836	947.737539089982	332.204560839335	1124.378948814461	713.476435437856	581.258810034389	1031.776139626805	609.976319932886	640.744644246298	1107.722264418816	546.005655813267	567.745934462014	1089.043138055386	438.749146168446	583.810907256374	1172.257648908570	761.967301212679	360.596381062865	1109.317127759191	634.304401651069	291.579037882725	1209.027549437575	570.897444772276	353.578628634078	1223.308845380695	499.061636532858	359.349082871407	1197.017783095082	422.173871854929	348.743494358655	1110.822200437670	308.215209579650	291.281240048352	1163.881000399348	195.585697188740	357.961544652284	1009.903559488084	374.296476889818	587.109267127485	888.446249659322	333.361496144357	645.274719054646	872.307955804179	227.219761702833	591.063184575270	669.161734991840	153.438745080192	557.870140155587	840.727951236003	116.972002533358	605.653185152298	732.475836688313	106.429654339092	635.324773549064	915.168508508177	33.390941049149	638.749674528619	1037.008437523119	38.416294746444	392.032239148868	1110.958825188396	36.378260798287	311.041808884704	1192.671826550221	98.388702759543	339.654319961990	1321.353725947964	50.207954638846	309.862638515104	959.092642050389	1075.621633461734	198.970533703682	945.306960738855	817.025346212162	187.641814880255	1181.779764088438	1103.807461113784	764.446952652403	1359.886318531003	1238.287656485385	658.133542165386	
39	31.167142857143	879.919772806460	994.866025632395	487.336711242527	1052.683332596978	1417.786559461089	304.364792951658	1160.339847796861	1348.988666672699	462.679961133076	1084.055837764425	1428.616497891274	637.809450566129	1057.879066619916	1481.784138893341	457.836108455085	1102.727285021695	926.092500878506	604.020861209890	1093.955869512885	949.662770605438	330.428934581369	1129.207560919994	716.171582821499	579.644133753694	1039.880567000953	610.617178708221	639.720364420642	1118.037794621117	548.113141175258	567.101154209872	1100.914578145046	439.512396996079	584.099930542153	1170.347538060984	761.364002621856	357.657239659529	1104.619084012676	634.267509608854	290.540146020852	1203.747646175698	569.811643361625	352.247024972140	1217.042120524321	498.205226090905	358.604511117012	1190.231776217695	421.584252436632	348.079543813793	1103.347428768944	308.029330444056	291.116767209554	1155.736974007809	195.248643595227	357.899008312719	1019.920920109222	375.789775654169	586.988179203783	896.457966227313	339.343864032140	644.181035083969	877.584740751075	233.247093493400	590.855859974044	673.271250035512	170.103352185703	555.405741771194	840.877388410394	121.292100519797	605.628954169936	731.772259230784	118.582808587817	633.542538653194	907.328738329819	32.077642012025	639.041485470740	1028.295103618086	38.323374301433	391.989744018926	1102.223656733656	36.300993989470	310.998875005484	1183.942602723606	98.273223432565	339.642177039553	1312.613561982931	50.165304958538	309.747037670177	964.506121599196	1075.136173254106	197.673368397460	959.796778502844	815.940273204594	187.637942543387	1170.663899332526	1101.494934905458	763.496386420723	1354.042453943437	1228.100925540917	656.154003853231	
40	31.177857142857	879.154756768884	996.284885260307	485.805964954459	1052.723766851512	1419.274437446596	303.089656537121	1160.061042409851	1350.383843741472	461.601334038305	1083.371118182381	1429.851276980845	636.690613350113	1057.373664515365	1483.134911396093	456.560398174286	1102.244045033256	927.104132527258	602.209382811485	1093.385774628263	951.468435363270	328.738467483323	1134.020647076996	719.152013272354	578.149044640002	1048.093145161322	611.610693087493	638.950598709543	1128.364582354177	550.685620891063	566.621528626497	1112.939835742376	440.881544958079	584.336002531533	1168.150250652177	760.692856164848	355.116508248385	1100.028590255549	634.375373916148	289.484105801731	1198.267998290745	568.779236859434	351.224092276786	1210.523053587521	497.350460332638	357.996673256662	1183.257326437486	421.023129645025	347.496752411494	1095.823642493774	307.829169154796	290.872262234457	1147.510579492425	194.924438046901	357.877648533807	1030.351967132053	377.703387211053	586.824647679812	905.121634415836	345.500096291292	643.068663368882	883.750678174285	239.519818326141	590.605319502368	679.077751627485	186.890597898900	552.728093890095	841.907583328567	125.988306149281	605.500167094455	732.364358009758	131.119350650433	631.561824502654	900.041473103810	30.713148026115	639.344421718811	1019.557691205449	38.233289882042	391.945282261065	1093.464704228062	36.208622767340	310.961683998219	1175.213245839061	98.121838027605	339.638444867622	1303.864062550862	50.033423015761	309.646708781168	969.969413747874	1074.734808383623	196.422275742533	975.081011126942	815.235575603988	187.829408679328	1158.921723196585	1099.262534549219	762.487480392045	1348.197496335824	1216.705989763622	654.623240244230	
41	31.188571428571	878.234417704243	997.607094495595	484.323623603516	1052.830209349804	1420.683265217754	301.935869061075	1159.756284490108	1351.643523967818	460.692783638594	1082.572414608363	1430.911432706337	635.736117426240	1056.868232972036	1484.402762760718	455.432177821529	1101.646206760791	928.059515825119	600.510117383253	1092.703105164488	953.129524104895	327.122892490991	1138.734399542673	722.403255230787	576.770702962690	1056.296852316577	612.978205962896	638.414170722633	1138.562948404124	553.732688905141	566.285656725499	1124.998285931456	442.849671580506	584.520774800169	1165.725668453131	760.001743827668	353.017218064849	1095.616618895402	634.620504365240	288.407365323766	1192.684843708822	567.812877837975	350.472123347684	1203.864866783528	496.509172736913	357.507161143573	1176.201886321081	420.489144657767	346.985041676452	1088.327421504054	307.629857386470	290.545201662321	1139.259080018305	194.618579787814	357.885397313811	1041.062962114989	380.037037358239	586.621043181750	914.315637980384	351.728113265760	641.962258550312	890.736296688281	245.909384291520	590.321156616834	686.421476144945	203.312948532947	549.980152143474	843.914488415378	130.937943014413	605.244831769937	734.322413315595	143.632850415771	629.464177941141	893.691182721948	29.430701294967	639.573447727479	1010.821950516220	38.153880254187	391.891347370488	1084.708862711611	36.115160798733	310.924459954082	1166.503358757833	97.956493498890	339.639440220788	1295.126829589121	49.849952908607	309.559631697771	975.500703944933	1074.388082855620	195.202542269205	991.097192083594	814.960499981533	188.220919692141	1146.662256092985	1097.138010524918	761.368016890129	1342.321619484651	1204.045136807295	653.609596876854	
